<?xml version="1.0" encoding="UTF-8"?>
<!DOCTYPE svg PUBLIC "-//W3C//DTD SVG 1.1//EN" "http://www.w3.org/Graphics/SVG/1.1/DTD/svg11.dtd">
<svg xmlns="http://www.w3.org/2000/svg" version="1.1" width="288px" height="288px" style="shape-rendering:geometricPrecision; text-rendering:geometricPrecision; image-rendering:optimizeQuality; fill-rule:evenodd; clip-rule:evenodd" xlinkHref="http://www.w3.org/1999/xlink">
<g><path  fill="#c04d4c" d="M 89.5,35.5 C 83.5,35.5 77.5,35.5 71.5,35.5C 71.5,32.5 71.5,29.5 71.5,26.5C 77.5,26.5 83.5,26.5 89.5,26.5C 89.5,29.5 89.5,32.5 89.5,35.5 Z"/></g>
<g><path  fill="#c04d4c" d="M 161.5,35.5 C 158.5,35.5 155.5,35.5 152.5,35.5C 152.5,38.5 152.5,41.5 152.5,44.5C 149.5,44.5 146.5,44.5 143.5,44.5C 143.5,41.5 143.5,38.5 143.5,35.5C 140.5,35.5 137.5,35.5 134.5,35.5C 134.5,38.5 134.5,41.5 134.5,44.5C 125.5,44.5 116.5,44.5 107.5,44.5C 107.5,47.5 107.5,50.5 107.5,53.5C 101.5,53.5 95.5,53.5 89.5,53.5C 89.5,56.5 89.5,59.5 89.5,62.5C 86.5,62.5 83.5,62.5 80.5,62.5C 80.5,59.5 80.5,56.5 80.5,53.5C 77.5,53.5 74.5,53.5 71.5,53.5C 71.5,50.5 71.5,47.5 71.5,44.5C 77.5,44.5 83.5,44.5 89.5,44.5C 89.5,41.5 89.5,38.5 89.5,35.5C 92.5,35.5 95.5,35.5 98.5,35.5C 98.5,32.5 98.5,29.5 98.5,26.5C 119.5,26.5 140.5,26.5 161.5,26.5C 161.5,29.5 161.5,32.5 161.5,35.5 Z"/></g>
<g><path  fill="#000000" d="M 71.5,35.5 C 77.5,35.5 83.5,35.5 89.5,35.5C 89.5,38.5 89.5,41.5 89.5,44.5C 83.5,44.5 77.5,44.5 71.5,44.5C 71.5,41.5 71.5,38.5 71.5,35.5 Z"/></g>
<g><path  fill="#ab3c3b" d="M 161.5,35.5 C 161.5,41.5 161.5,47.5 161.5,53.5C 143.5,53.5 125.5,53.5 107.5,53.5C 107.5,50.5 107.5,47.5 107.5,44.5C 116.5,44.5 125.5,44.5 134.5,44.5C 134.5,41.5 134.5,38.5 134.5,35.5C 137.5,35.5 140.5,35.5 143.5,35.5C 143.5,38.5 143.5,41.5 143.5,44.5C 146.5,44.5 149.5,44.5 152.5,44.5C 152.5,41.5 152.5,38.5 152.5,35.5C 155.5,35.5 158.5,35.5 161.5,35.5 Z"/></g>
<g><path  fill="#bb4848" d="M 161.5,35.5 C 164.5,35.5 167.5,35.5 170.5,35.5C 170.5,44.5 170.5,53.5 170.5,62.5C 167.5,62.5 164.5,62.5 161.5,62.5C 161.5,59.5 161.5,56.5 161.5,53.5C 161.5,47.5 161.5,41.5 161.5,35.5 Z"/></g>
<g><path  fill="#000000" d="M 71.5,53.5 C 74.5,53.5 77.5,53.5 80.5,53.5C 80.5,56.5 80.5,59.5 80.5,62.5C 83.5,62.5 86.5,62.5 89.5,62.5C 89.5,68.5 89.5,74.5 89.5,80.5C 89.5,83.5 89.5,86.5 89.5,89.5C 89.5,92.5 89.5,95.5 89.5,98.5C 95.5,98.5 101.5,98.5 107.5,98.5C 113.5,98.5 119.5,98.5 125.5,98.5C 137.5,98.5 149.5,98.5 161.5,98.5C 161.5,101.5 161.5,104.5 161.5,107.5C 170.5,107.5 179.5,107.5 188.5,107.5C 188.5,128.5 188.5,149.5 188.5,170.5C 185.5,170.5 182.5,170.5 179.5,170.5C 179.5,161.5 179.5,152.5 179.5,143.5C 179.5,134.5 179.5,125.5 179.5,116.5C 164.5,116.5 149.5,116.5 134.5,116.5C 134.5,113.5 134.5,110.5 134.5,107.5C 128.5,107.5 122.5,107.5 116.5,107.5C 116.5,110.5 116.5,113.5 116.5,116.5C 119.5,116.5 122.5,116.5 125.5,116.5C 125.5,119.5 125.5,122.5 125.5,125.5C 128.5,125.5 131.5,125.5 134.5,125.5C 134.5,128.5 134.5,131.5 134.5,134.5C 131.5,134.5 128.5,134.5 125.5,134.5C 122.5,134.5 119.5,134.5 116.5,134.5C 116.5,131.5 116.5,128.5 116.5,125.5C 113.5,125.5 110.5,125.5 107.5,125.5C 107.5,122.5 107.5,119.5 107.5,116.5C 101.5,116.5 95.5,116.5 89.5,116.5C 86.5,116.5 83.5,116.5 80.5,116.5C 77.5,116.5 74.5,116.5 71.5,116.5C 71.5,125.5 71.5,134.5 71.5,143.5C 71.5,152.5 71.5,161.5 71.5,170.5C 68.5,170.5 65.5,170.5 62.5,170.5C 62.5,149.5 62.5,128.5 62.5,107.5C 68.5,107.5 74.5,107.5 80.5,107.5C 80.5,95.5 80.5,83.5 80.5,71.5C 74.5,71.5 68.5,71.5 62.5,71.5C 62.5,65.5 62.5,59.5 62.5,53.5C 65.5,53.5 68.5,53.5 71.5,53.5 Z"/></g>
<g><path  fill="#d9ad91" d="M 107.5,53.5 C 125.5,53.5 143.5,53.5 161.5,53.5C 161.5,56.5 161.5,59.5 161.5,62.5C 161.5,65.5 161.5,68.5 161.5,71.5C 164.5,71.5 167.5,71.5 170.5,71.5C 170.5,74.5 170.5,77.5 170.5,80.5C 167.5,80.5 164.5,80.5 161.5,80.5C 161.5,83.5 161.5,86.5 161.5,89.5C 161.5,92.5 161.5,95.5 161.5,98.5C 149.5,98.5 137.5,98.5 125.5,98.5C 125.5,95.5 125.5,92.5 125.5,89.5C 119.5,89.5 113.5,89.5 107.5,89.5C 107.5,92.5 107.5,95.5 107.5,98.5C 101.5,98.5 95.5,98.5 89.5,98.5C 89.5,95.5 89.5,92.5 89.5,89.5C 92.5,89.5 95.5,89.5 98.5,89.5C 98.5,86.5 98.5,83.5 98.5,80.5C 95.5,80.5 92.5,80.5 89.5,80.5C 89.5,74.5 89.5,68.5 89.5,62.5C 89.5,59.5 89.5,56.5 89.5,53.5C 95.5,53.5 101.5,53.5 107.5,53.5 Z"/></g>
<g><path  fill="#000000" d="M 98.5,62.5 C 101.5,62.5 104.5,62.5 107.5,62.5C 107.5,65.5 107.5,68.5 107.5,71.5C 104.5,71.5 101.5,71.5 98.5,71.5C 98.5,68.5 98.5,65.5 98.5,62.5 Z"/></g>
<g><path  fill="#000000" d="M 134.5,62.5 C 137.5,62.5 140.5,62.5 143.5,62.5C 143.5,65.5 143.5,68.5 143.5,71.5C 140.5,71.5 137.5,71.5 134.5,71.5C 134.5,68.5 134.5,65.5 134.5,62.5 Z"/></g>
<g><path  fill="#000000" d="M 161.5,62.5 C 164.5,62.5 167.5,62.5 170.5,62.5C 173.5,62.5 176.5,62.5 179.5,62.5C 179.5,71.5 179.5,80.5 179.5,89.5C 176.5,89.5 173.5,89.5 170.5,89.5C 167.5,89.5 164.5,89.5 161.5,89.5C 161.5,86.5 161.5,83.5 161.5,80.5C 164.5,80.5 167.5,80.5 170.5,80.5C 170.5,77.5 170.5,74.5 170.5,71.5C 167.5,71.5 164.5,71.5 161.5,71.5C 161.5,68.5 161.5,65.5 161.5,62.5 Z"/></g>
<g><path  fill="#c9877e" d="M 89.5,80.5 C 92.5,80.5 95.5,80.5 98.5,80.5C 98.5,83.5 98.5,86.5 98.5,89.5C 95.5,89.5 92.5,89.5 89.5,89.5C 89.5,86.5 89.5,83.5 89.5,80.5 Z"/></g>
<g><path  fill="#c9877e" d="M 143.5,80.5 C 146.5,80.5 149.5,80.5 152.5,80.5C 152.5,83.5 152.5,86.5 152.5,89.5C 149.5,89.5 146.5,89.5 143.5,89.5C 143.5,86.5 143.5,83.5 143.5,80.5 Z"/></g>
<g><path  fill="#c9877e" d="M 125.5,98.5 C 119.5,98.5 113.5,98.5 107.5,98.5C 107.5,95.5 107.5,92.5 107.5,89.5C 113.5,89.5 119.5,89.5 125.5,89.5C 125.5,92.5 125.5,95.5 125.5,98.5 Z"/></g>
<g><path  fill="#ab3c3b" d="M 161.5,89.5 C 164.5,89.5 167.5,89.5 170.5,89.5C 170.5,92.5 170.5,95.5 170.5,98.5C 167.5,98.5 164.5,98.5 161.5,98.5C 161.5,95.5 161.5,92.5 161.5,89.5 Z"/></g>
<g><path  fill="#d9ad91" d="M 134.5,116.5 C 134.5,119.5 134.5,122.5 134.5,125.5C 131.5,125.5 128.5,125.5 125.5,125.5C 125.5,122.5 125.5,119.5 125.5,116.5C 122.5,116.5 119.5,116.5 116.5,116.5C 116.5,113.5 116.5,110.5 116.5,107.5C 122.5,107.5 128.5,107.5 134.5,107.5C 134.5,110.5 134.5,113.5 134.5,116.5 Z"/></g>
<g><path  fill="#a2a2a2" d="M 80.5,116.5 C 80.5,122.5 80.5,128.5 80.5,134.5C 80.5,137.5 80.5,140.5 80.5,143.5C 77.5,143.5 74.5,143.5 71.5,143.5C 71.5,134.5 71.5,125.5 71.5,116.5C 74.5,116.5 77.5,116.5 80.5,116.5 Z"/></g>
<g><path  fill="#909190" d="M 80.5,116.5 C 83.5,116.5 86.5,116.5 89.5,116.5C 89.5,122.5 89.5,128.5 89.5,134.5C 86.5,134.5 83.5,134.5 80.5,134.5C 80.5,128.5 80.5,122.5 80.5,116.5 Z"/></g>
<g><path  fill="#a8a9a8" d="M 89.5,116.5 C 95.5,116.5 101.5,116.5 107.5,116.5C 107.5,119.5 107.5,122.5 107.5,125.5C 110.5,125.5 113.5,125.5 116.5,125.5C 116.5,128.5 116.5,131.5 116.5,134.5C 119.5,134.5 122.5,134.5 125.5,134.5C 125.5,140.5 125.5,146.5 125.5,152.5C 131.5,152.5 137.5,152.5 143.5,152.5C 143.5,155.5 143.5,158.5 143.5,161.5C 125.5,161.5 107.5,161.5 89.5,161.5C 89.5,152.5 89.5,143.5 89.5,134.5C 89.5,128.5 89.5,122.5 89.5,116.5 Z"/></g>
<g><path  fill="#a8a9a8" d="M 134.5,116.5 C 149.5,116.5 164.5,116.5 179.5,116.5C 179.5,125.5 179.5,134.5 179.5,143.5C 176.5,143.5 173.5,143.5 170.5,143.5C 170.5,137.5 170.5,131.5 170.5,125.5C 167.5,125.5 164.5,125.5 161.5,125.5C 161.5,131.5 161.5,137.5 161.5,143.5C 158.5,143.5 155.5,143.5 152.5,143.5C 152.5,146.5 152.5,149.5 152.5,152.5C 149.5,152.5 146.5,152.5 143.5,152.5C 143.5,149.5 143.5,146.5 143.5,143.5C 140.5,143.5 137.5,143.5 134.5,143.5C 134.5,140.5 134.5,137.5 134.5,134.5C 134.5,131.5 134.5,128.5 134.5,125.5C 134.5,122.5 134.5,119.5 134.5,116.5 Z"/></g>
<g><path  fill="#787978" d="M 170.5,143.5 C 167.5,143.5 164.5,143.5 161.5,143.5C 161.5,137.5 161.5,131.5 161.5,125.5C 164.5,125.5 167.5,125.5 170.5,125.5C 170.5,131.5 170.5,137.5 170.5,143.5 Z"/></g>
<g><path  fill="#000000" d="M 80.5,134.5 C 83.5,134.5 86.5,134.5 89.5,134.5C 89.5,143.5 89.5,152.5 89.5,161.5C 89.5,179.5 89.5,197.5 89.5,215.5C 89.5,221.5 89.5,227.5 89.5,233.5C 80.5,233.5 71.5,233.5 62.5,233.5C 62.5,230.5 62.5,227.5 62.5,224.5C 68.5,224.5 74.5,224.5 80.5,224.5C 80.5,206.5 80.5,188.5 80.5,170.5C 80.5,161.5 80.5,152.5 80.5,143.5C 80.5,140.5 80.5,137.5 80.5,134.5 Z"/></g>
<g><path  fill="#909190" d="M 98.5,134.5 C 101.5,134.5 104.5,134.5 107.5,134.5C 107.5,137.5 107.5,140.5 107.5,143.5C 110.5,143.5 113.5,143.5 116.5,143.5C 116.5,146.5 116.5,149.5 116.5,152.5C 110.5,152.5 104.5,152.5 98.5,152.5C 98.5,146.5 98.5,140.5 98.5,134.5 Z"/></g>
<g><path  fill="#909190" d="M 125.5,134.5 C 128.5,134.5 131.5,134.5 134.5,134.5C 134.5,137.5 134.5,140.5 134.5,143.5C 137.5,143.5 140.5,143.5 143.5,143.5C 143.5,146.5 143.5,149.5 143.5,152.5C 137.5,152.5 131.5,152.5 125.5,152.5C 125.5,146.5 125.5,140.5 125.5,134.5 Z"/></g>
<g><path  fill="#d9ad91" d="M 71.5,143.5 C 74.5,143.5 77.5,143.5 80.5,143.5C 80.5,152.5 80.5,161.5 80.5,170.5C 77.5,170.5 74.5,170.5 71.5,170.5C 71.5,161.5 71.5,152.5 71.5,143.5 Z"/></g>
<g><path  fill="#909190" d="M 161.5,143.5 C 164.5,143.5 167.5,143.5 170.5,143.5C 170.5,146.5 170.5,149.5 170.5,152.5C 167.5,152.5 164.5,152.5 161.5,152.5C 161.5,155.5 161.5,158.5 161.5,161.5C 155.5,161.5 149.5,161.5 143.5,161.5C 143.5,158.5 143.5,155.5 143.5,152.5C 146.5,152.5 149.5,152.5 152.5,152.5C 152.5,149.5 152.5,146.5 152.5,143.5C 155.5,143.5 158.5,143.5 161.5,143.5 Z"/></g>
<g><path  fill="#d9ad91" d="M 170.5,143.5 C 173.5,143.5 176.5,143.5 179.5,143.5C 179.5,152.5 179.5,161.5 179.5,170.5C 176.5,170.5 173.5,170.5 170.5,170.5C 170.5,164.5 170.5,158.5 170.5,152.5C 170.5,149.5 170.5,146.5 170.5,143.5 Z"/></g>
<g><path  fill="#000000" d="M 170.5,152.5 C 170.5,158.5 170.5,164.5 170.5,170.5C 170.5,182.5 170.5,194.5 170.5,206.5C 167.5,206.5 164.5,206.5 161.5,206.5C 161.5,191.5 161.5,176.5 161.5,161.5C 161.5,158.5 161.5,155.5 161.5,152.5C 164.5,152.5 167.5,152.5 170.5,152.5 Z"/></g>
<g><path  fill="#2a324c" d="M 89.5,161.5 C 107.5,161.5 125.5,161.5 143.5,161.5C 149.5,161.5 155.5,161.5 161.5,161.5C 161.5,176.5 161.5,191.5 161.5,206.5C 161.5,209.5 161.5,212.5 161.5,215.5C 155.5,215.5 149.5,215.5 143.5,215.5C 143.5,203.5 143.5,191.5 143.5,179.5C 143.5,176.5 143.5,173.5 143.5,170.5C 134.5,170.5 125.5,170.5 116.5,170.5C 116.5,173.5 116.5,176.5 116.5,179.5C 116.5,182.5 116.5,185.5 116.5,188.5C 113.5,188.5 110.5,188.5 107.5,188.5C 107.5,197.5 107.5,206.5 107.5,215.5C 101.5,215.5 95.5,215.5 89.5,215.5C 89.5,197.5 89.5,179.5 89.5,161.5 Z"/></g>
<g><path  fill="#21283f" d="M 143.5,179.5 C 134.5,179.5 125.5,179.5 116.5,179.5C 116.5,176.5 116.5,173.5 116.5,170.5C 125.5,170.5 134.5,170.5 143.5,170.5C 143.5,173.5 143.5,176.5 143.5,179.5 Z"/></g>
<g><path  fill="#000000" d="M 116.5,179.5 C 125.5,179.5 134.5,179.5 143.5,179.5C 143.5,191.5 143.5,203.5 143.5,215.5C 143.5,221.5 143.5,227.5 143.5,233.5C 134.5,233.5 125.5,233.5 116.5,233.5C 116.5,230.5 116.5,227.5 116.5,224.5C 122.5,224.5 128.5,224.5 134.5,224.5C 134.5,212.5 134.5,200.5 134.5,188.5C 128.5,188.5 122.5,188.5 116.5,188.5C 116.5,185.5 116.5,182.5 116.5,179.5 Z"/></g>
<g><path  fill="#d9ad91" d="M 89.5,215.5 C 95.5,215.5 101.5,215.5 107.5,215.5C 107.5,221.5 107.5,227.5 107.5,233.5C 101.5,233.5 95.5,233.5 89.5,233.5C 89.5,227.5 89.5,221.5 89.5,215.5 Z"/></g>
<g><path  fill="#d9ad91" d="M 143.5,215.5 C 149.5,215.5 155.5,215.5 161.5,215.5C 161.5,221.5 161.5,227.5 161.5,233.5C 155.5,233.5 149.5,233.5 143.5,233.5C 143.5,227.5 143.5,221.5 143.5,215.5 Z"/></g>
</svg>
